<?xml version="1.0" encoding="utf-8"?>
<!-- Generator: Adobe Illustrator 26.0.1, SVG Export Plug-In . SVG Version: 6.00 Build 0)  -->
<svg version="1.1" id="Capa_1" xmlns="http://www.w3.org/2000/svg" xmlns:xlink="http://www.w3.org/1999/xlink" x="0px" y="0px"
	 viewBox="0 0 230 230" style="enable-background:new 0 0 230 230;" xml:space="preserve">
<style type="text/css">
	.st0{fill:url(#SVGID_1_);}
	.st1{fill:url(#SVGID_00000119088686572672279600000009038400200488631424_);}
	.st2{fill:url(#SVGID_00000111901444446256207860000001060338011198859154_);}
	.st3{fill:url(#SVGID_00000043423870070608399420000011643752472137118623_);}
</style>
<g>
	<g>
		<linearGradient id="SVGID_1_" gradientUnits="userSpaceOnUse" x1="30.2718" y1="65.4548" x2="166.2718" y2="186.4548">
			<stop  offset="0" style="stop-color:#FFF2A6"/>
			<stop  offset="2.112336e-02" style="stop-color:#EDD682"/>
			<stop  offset="4.863281e-02" style="stop-color:#D9B75B"/>
			<stop  offset="7.576038e-02" style="stop-color:#C99F3B"/>
			<stop  offset="0.102" style="stop-color:#BE8E25"/>
			<stop  offset="0.1271" style="stop-color:#B78418"/>
			<stop  offset="0.1495" style="stop-color:#B58013"/>
			<stop  offset="0.2295" style="stop-color:#C5972C"/>
			<stop  offset="0.3197" style="stop-color:#D3AA42"/>
			<stop  offset="0.4075" style="stop-color:#DBB54F"/>
			<stop  offset="0.4892" style="stop-color:#DEB953"/>
			<stop  offset="0.5803" style="stop-color:#DBB54F"/>
			<stop  offset="0.6752" style="stop-color:#D3AA42"/>
			<stop  offset="0.7715" style="stop-color:#C6982E"/>
			<stop  offset="0.8616" style="stop-color:#B58013"/>
			<stop  offset="0.8837" style="stop-color:#B78317"/>
			<stop  offset="0.9066" style="stop-color:#BD8D24"/>
			<stop  offset="0.93" style="stop-color:#C89D38"/>
			<stop  offset="0.9536" style="stop-color:#D6B456"/>
			<stop  offset="0.9771" style="stop-color:#E9D07B"/>
			<stop  offset="1" style="stop-color:#FFF2A6"/>
		</linearGradient>
		<path class="st0" d="M144.7,95.2c-9.8,0-19.2,3-27.2,8.6l-0.5,0.3l-0.5-0.3c-5.6-4-11.9-6.6-18.7-7.9l-2-0.4l20.6-13.5
			c0.8-0.6,1.2-1.6,0.8-2.5l-5.6-15.3c-0.3-0.8-1.1-1.6-2-1.6H69.2c-0.9,0-1.7,0.8-2,1.6l-5.6,15.2c-0.3,0.9,0,2,0.8,2.6l20.5,13.5
			l-2,0.4c-22.6,4-39,23.7-39,46.7c0,26.1,21.3,47.4,47.4,47.4c9.8,0,19.3-3,27.3-8.6l0.5-0.3l0.5,0.3c8,5.6,17.4,8.6,27.2,8.6
			c26.1,0,47.4-21.3,47.4-47.4C192.1,116.5,170.9,95.2,144.7,95.2z M108.1,67.5l3,8l-13.7-8C97.4,67.5,108.1,67.5,108.1,67.5z
			 M107.3,78.9H71.5l17.9-10.4L107.3,78.9z M70.7,67.5h10.8l-13.8,8.1L70.7,67.5z M70.8,82.2H108L89.4,94.4L70.8,82.2z M112.6,178.9
			c-6.9,4.5-15,6.9-23.3,6.9c-23.8,0-43.1-19.4-43.1-43.1s19.4-43.1,43.1-43.1c23.8,0,43.1,19.3,43.1,43.1c0,7.7-2.1,15.3-6,22
			l-0.5,0.8l-0.7-0.6c-2.1-1.9-3.9-4-5.5-6.4l-0.2-0.4l0.2-0.4c2.3-4.6,3.5-9.8,3.5-15c0-18.7-15.2-33.9-33.9-33.9
			c-18.7,0-33.9,15.2-33.9,33.9c0,18.7,15.2,33.9,33.9,33.9c6.1,0,12-1.6,17.2-4.7l0.6-0.4l0.4,0.6c1.6,2,3.3,3.9,5.2,5.6l0.8,0.7
			L112.6,178.9z M129.4,117.3l0.7-0.4c4.4-2.5,9.5-3.9,14.6-3.9c16.3,0,29.6,13.3,29.6,29.6c0,16.3-13.3,29.6-29.6,29.6
			c-5.1,0-10.1-1.3-14.6-3.9l-0.7-0.4l0.4-0.7c4.5-7.4,6.9-15.9,6.9-24.6s-2.4-17.2-6.9-24.6L129.4,117.3z M118.9,142.6
			c0,2.7-0.4,5.3-1.1,7.9l-0.8,2.8l-0.8-2.8c-0.7-2.6-1.1-5.2-1.1-7.9c0-2.7,0.4-5.3,1.1-7.9l0.8-2.8l0.8,2.8
			C118.5,137.3,118.9,139.9,118.9,142.6z M104.6,117.3l-0.4,0.7c-4.5,7.4-6.9,15.9-6.9,24.6c0,8.7,2.4,17.2,6.9,24.6l0.4,0.7
			l-0.7,0.4c-4.4,2.5-9.5,3.9-14.6,3.9c-16.3,0-29.6-13.3-29.6-29.6c0-16.3,13.3-29.6,29.6-29.6c5.1,0,10.1,1.3,14.6,3.9
			L104.6,117.3z M144.7,185.8c-23.8,0-43.1-19.4-43.1-43.1c0-7.8,2.1-15.3,6-22l0.5-0.8l0.7,0.7c2.1,1.9,3.9,4,5.4,6.4l0.2,0.4
			l-0.2,0.4c-2.3,4.6-3.5,9.8-3.5,15c0,18.7,15.2,33.9,33.9,33.9c18.7,0,33.9-15.2,33.9-33.9c0-18.7-15.2-33.9-33.9-33.9
			c-6.1,0-12,1.6-17.2,4.7l-0.6,0.4l-0.4-0.6c-1.6-2-3.3-3.9-5.2-5.6l-0.8-0.7l0.9-0.6c6.9-4.5,15-6.9,23.3-6.9
			c23.8,0,43.1,19.3,43.1,43.1S168.5,185.8,144.7,185.8z"/>
		<g>
			
				<linearGradient id="SVGID_00000047038045742401892340000010327625724285238413_" gradientUnits="userSpaceOnUse" x1="80.1715" y1="9.3692" x2="216.1716" y2="130.3692">
				<stop  offset="0" style="stop-color:#FFF2A6"/>
				<stop  offset="2.112336e-02" style="stop-color:#EDD682"/>
				<stop  offset="4.863281e-02" style="stop-color:#D9B75B"/>
				<stop  offset="7.576038e-02" style="stop-color:#C99F3B"/>
				<stop  offset="0.102" style="stop-color:#BE8E25"/>
				<stop  offset="0.1271" style="stop-color:#B78418"/>
				<stop  offset="0.1495" style="stop-color:#B58013"/>
				<stop  offset="0.2295" style="stop-color:#C5972C"/>
				<stop  offset="0.3197" style="stop-color:#D3AA42"/>
				<stop  offset="0.4075" style="stop-color:#DBB54F"/>
				<stop  offset="0.4892" style="stop-color:#DEB953"/>
				<stop  offset="0.5803" style="stop-color:#DBB54F"/>
				<stop  offset="0.6752" style="stop-color:#D3AA42"/>
				<stop  offset="0.7715" style="stop-color:#C6982E"/>
				<stop  offset="0.8616" style="stop-color:#B58013"/>
				<stop  offset="0.8837" style="stop-color:#B78317"/>
				<stop  offset="0.9066" style="stop-color:#BD8D24"/>
				<stop  offset="0.93" style="stop-color:#C89D38"/>
				<stop  offset="0.9536" style="stop-color:#D6B456"/>
				<stop  offset="0.9771" style="stop-color:#E9D07B"/>
				<stop  offset="1" style="stop-color:#FFF2A6"/>
			</linearGradient>
			<path style="fill:url(#SVGID_00000047038045742401892340000010327625724285238413_);" d="M131.2,42.9c-0.4-0.4-0.9-0.6-1.5-0.6
				c-0.6,0-1.1,0.2-1.5,0.6l-9.6,9.6c-0.4,0.4-0.6,0.9-0.6,1.5c0,0.6,0.2,1.1,0.6,1.5c0.8,0.8,2.2,0.8,3,0l9.6-9.6
				C132.1,45.1,132.1,43.7,131.2,42.9z"/>
			
				<linearGradient id="SVGID_00000039850007233537936060000009800218749110654136_" gradientUnits="userSpaceOnUse" x1="72.1464" y1="18.3892" x2="208.1464" y2="139.3892">
				<stop  offset="0" style="stop-color:#FFF2A6"/>
				<stop  offset="2.112336e-02" style="stop-color:#EDD682"/>
				<stop  offset="4.863281e-02" style="stop-color:#D9B75B"/>
				<stop  offset="7.576038e-02" style="stop-color:#C99F3B"/>
				<stop  offset="0.102" style="stop-color:#BE8E25"/>
				<stop  offset="0.1271" style="stop-color:#B78418"/>
				<stop  offset="0.1495" style="stop-color:#B58013"/>
				<stop  offset="0.2295" style="stop-color:#C5972C"/>
				<stop  offset="0.3197" style="stop-color:#D3AA42"/>
				<stop  offset="0.4075" style="stop-color:#DBB54F"/>
				<stop  offset="0.4892" style="stop-color:#DEB953"/>
				<stop  offset="0.5803" style="stop-color:#DBB54F"/>
				<stop  offset="0.6752" style="stop-color:#D3AA42"/>
				<stop  offset="0.7715" style="stop-color:#C6982E"/>
				<stop  offset="0.8616" style="stop-color:#B58013"/>
				<stop  offset="0.8837" style="stop-color:#B78317"/>
				<stop  offset="0.9066" style="stop-color:#BD8D24"/>
				<stop  offset="0.93" style="stop-color:#C89D38"/>
				<stop  offset="0.9536" style="stop-color:#D6B456"/>
				<stop  offset="0.9771" style="stop-color:#E9D07B"/>
				<stop  offset="1" style="stop-color:#FFF2A6"/>
			</linearGradient>
			<path style="fill:url(#SVGID_00000039850007233537936060000009800218749110654136_);" d="M92.1,27.2c0-1.2-1.3-2.1-2.4-2.1
				c-1.2,0-2.4,1-2.4,2.1v13.5c0,1.2,1.3,2.1,2.4,2.1c1.2,0,2.4-1,2.4-2.1V27.2z"/>
			
				<linearGradient id="SVGID_00000001622678389799186130000006954682034349778067_" gradientUnits="userSpaceOnUse" x1="48.78" y1="44.6522" x2="184.78" y2="165.6522">
				<stop  offset="0" style="stop-color:#FFF2A6"/>
				<stop  offset="2.112336e-02" style="stop-color:#EDD682"/>
				<stop  offset="4.863281e-02" style="stop-color:#D9B75B"/>
				<stop  offset="7.576038e-02" style="stop-color:#C99F3B"/>
				<stop  offset="0.102" style="stop-color:#BE8E25"/>
				<stop  offset="0.1271" style="stop-color:#B78418"/>
				<stop  offset="0.1495" style="stop-color:#B58013"/>
				<stop  offset="0.2295" style="stop-color:#C5972C"/>
				<stop  offset="0.3197" style="stop-color:#D3AA42"/>
				<stop  offset="0.4075" style="stop-color:#DBB54F"/>
				<stop  offset="0.4892" style="stop-color:#DEB953"/>
				<stop  offset="0.5803" style="stop-color:#DBB54F"/>
				<stop  offset="0.6752" style="stop-color:#D3AA42"/>
				<stop  offset="0.7715" style="stop-color:#C6982E"/>
				<stop  offset="0.8616" style="stop-color:#B58013"/>
				<stop  offset="0.8837" style="stop-color:#B78317"/>
				<stop  offset="0.9066" style="stop-color:#BD8D24"/>
				<stop  offset="0.93" style="stop-color:#C89D38"/>
				<stop  offset="0.9536" style="stop-color:#D6B456"/>
				<stop  offset="0.9771" style="stop-color:#E9D07B"/>
				<stop  offset="1" style="stop-color:#FFF2A6"/>
			</linearGradient>
			<path style="fill:url(#SVGID_00000001622678389799186130000006954682034349778067_);" d="M60.2,52.4l-9.6-9.6
				c-0.4-0.4-0.9-0.6-1.5-0.6c-0.6,0-1.1,0.2-1.5,0.6c-0.8,0.8-0.8,2.2,0,3l9.6,9.6c0.8,0.8,2.2,0.8,3,0c0.4-0.4,0.6-0.9,0.6-1.5
				C60.8,53.4,60.6,52.9,60.2,52.4z"/>
		</g>
	</g>
</g>
</svg>
